HIERARCHY
ROOT Hips
{
	OFFSET	0.000000	0.000000	0.000000
	CHANNELS	6	Xposition	Yposition	Zposition	Zrotation	Xrotation	Yrotation
	JOINT LeftHip
	{
		OFFSET	15.500000	-8.200000	0.000000
		CHANNELS	3	Zrotation	Xrotation	Yrotation
		JOINT LeftKnee
		{
			OFFSET	0.000000	-41.000000	0.000000
			CHANNELS	3	Zrotation	Xrotation	Yrotation
			JOINT LeftAnkle
			{
				OFFSET	0.000000	-41.500000	0.000000
				CHANNELS	3	Zrotation	Xrotation	Yrotation
				End Site
				{
					OFFSET	0.000000	0.000000	22.875000
				}
			}
		}
	}
	JOINT RightHip
	{
		OFFSET	-15.500000	-8.200000	0.000000
		CHANNELS	3	Zrotation	Xrotation	Yrotation
		JOINT RightKnee
		{
			OFFSET	0.000000	-41.000000	0.000000
			CHANNELS	3	Zrotation	Xrotation	Yrotation
			JOINT RightAnkle
			{
				OFFSET	0.000000	-41.500000	0.000000
				CHANNELS	3	Zrotation	Xrotation	Yrotation
				End Site
				{
					OFFSET	0.000000	0.000000	22.875000
				}
			}
		}
	}
	JOINT Chest
	{
		OFFSET	0.000000	16.666667	0.000000
		CHANNELS	3	Zrotation	Xrotation	Yrotation
		JOINT LeftCollar
		{
			OFFSET	4.625000	33.333333	1.541667
			CHANNELS	3	Zrotation	Xrotation	Yrotation
			JOINT LeftShoulder
			{
				OFFSET	13.875000	0.000000	0.000000
				CHANNELS	3	Zrotation	Xrotation	Yrotation
				JOINT LeftElbow
				{
					OFFSET	0.000000	-28.000000	0.000000
					CHANNELS	3	Zrotation	Xrotation	Yrotation
					JOINT LeftWrist
					{
						OFFSET	0.000000	-25.000000	0.000000
						CHANNELS	3	Zrotation	Xrotation	Yrotation
						End Site
						{
							OFFSET	0.000000	-7.500000	0.000000
						}
					}
				}
			}
		}
		JOINT RightCollar
		{
			OFFSET	-4.625000	33.333333	1.541667
			CHANNELS	3	Zrotation	Xrotation	Yrotation
			JOINT RightShoulder
			{
				OFFSET	-13.875000	0.000000	0.000000
				CHANNELS	3	Zrotation	Xrotation	Yrotation
				JOINT RightElbow
				{
					OFFSET	0.000000	-28.000000	0.000000
					CHANNELS	3	Zrotation	Xrotation	Yrotation
					JOINT RightWrist
					{
						OFFSET	0.000000	-25.000000	0.000000
						CHANNELS	3	Zrotation	Xrotation	Yrotation
						End Site
						{
							OFFSET	0.000000	-7.500000	0.000000
						}
					}
				}
			}
		}
		JOINT Neck
		{
			OFFSET	0.000000	33.333333	0.000000
			CHANNELS	3	Zrotation	Xrotation	Yrotation
			JOINT Head
			{
				OFFSET	0.000000	12.000000	0.000000
				CHANNELS	3	Zrotation	Xrotation	Yrotation
				End Site
				{
					OFFSET	0.000000	15.000000	0.000000
				}
			}
		}
	}
}
MOTION
Frames:	37
Frame Time:	0.012000
86.16	102.86	-47.64	-1.61	0.64	-27.92	-6.78	-1.32	1.36	0.00	2.18	0.00	2.43	31.03	-2.39	-1.86	-0.90	-2.46	0.00	3.68	0.00	1.12	28.94	0.61	-1.13	1.30	-1.18	0.00	0.00	0.00	-2.14	-1.89	-0.02	1.22	-1.53	-6.98	2.02	-0.39	0.00	0.00	0.00	0.00	-1.86	0.42	0.06	-1.00	-3.35	15.65	-2.45	-2.33	0.00	0.00	0.00	0.00	-0.22	-20.84	-10.76
86.20	102.86	-47.69	-1.61	0.64	-27.92	-6.78	-1.29	1.36	0.00	2.16	0.00	2.43	31.03	-2.39	-1.84	-0.90	-2.46	0.00	3.72	0.00	1.10	28.92	0.62	-1.13	1.33	-1.19	0.00	0.00	0.00	-2.14	-1.84	-0.01	1.20	-1.59	-6.96	1.96	-0.41	0.00	0.00	0.00	0.00	-1.86	0.43	-0.06	-1.02	-3.36	15.68	-2.45	-2.31	0.00	0.00	0.00	0.00	-0.21	-20.87	-10.74
86.18	102.86	-47.67	-1.61	0.64	-27.92	-6.78	-1.26	1.35	0.00	2.16	0.00	2.40	30.98	-2.42	-1.83	-0.87	-2.48	0.00	3.72	0.00	1.05	28.89	0.65	-1.12	1.36	-1.21	0.00	0.00	0.00	-2.10	-1.78	0.01	1.16	-1.59	-6.98	1.90	-0.43	0.00	0.00	0.00	0.00	-1.84	0.47	-0.23	-1.08	-3.39	15.72	-2.43	-2.29	0.00	0.00	0.00	0.00	-0.22	-20.89	-10.73
86.16	102.86	-47.66	-1.67	0.57	-27.78	-6.78	-1.22	1.34	0.00	2.15	0.00	2.40	30.96	-2.41	-1.83	-0.85	-2.47	0.00	3.72	0.00	0.98	29.01	0.57	-1.11	1.39	-1.22	0.00	0.00	0.00	-2.09	-1.75	0.00	1.15	-1.58	-7.01	1.83	-0.44	0.00	0.00	0.00	0.00	-1.82	0.49	-0.47	-1.16	-3.42	15.78	-2.39	-2.27	0.00	0.00	0.00	0.00	-0.04	-20.40	-10.79
86.24	102.86	-47.71	-1.67	0.57	-27.78	-6.78	-1.19	1.33	0.00	2.15	0.00	2.38	30.96	-2.40	-1.84	-0.82	-2.48	0.00	3.69	0.00	0.98	28.99	0.58	-1.12	1.42	-1.22	0.00	0.00	0.00	-2.12	-1.74	0.02	1.19	-1.51	-7.03	1.78	-0.43	0.00	0.00	0.00	0.00	-1.84	0.53	-0.77	-1.21	-3.47	15.87	-2.34	-2.25	0.00	0.00	0.00	0.00	-0.03	-20.43	-10.78
86.22	102.85	-47.67	-1.67	0.57	-27.78	-6.77	-1.17	1.31	0.00	2.15	0.00	2.37	30.95	-2.40	-1.87	-0.80	-2.48	0.00	3.68	0.00	0.97	29.00	0.58	-1.09	1.48	-1.24	0.00	0.00	0.00	-2.10	-1.68	0.05	1.18	-1.49	-6.99	1.74	-0.43	0.00	0.00	0.00	0.00	-1.81	0.59	-1.14	-1.35	-3.51	15.95	-2.28	-2.23	0.00	0.00	0.00	0.00	-0.05	-20.49	-10.76
86.20	102.85	-47.65	-1.73	0.52	-27.74	-6.78	-1.14	1.29	0.00	2.15	0.00	2.35	30.93	-2.38	-1.92	-0.80	-2.47	0.00	3.67	0.00	0.96	28.99	0.57	-1.10	1.52	-1.25	0.00	0.00	0.00	-2.12	-1.67	0.08	1.20	-1.49	-6.95	1.70	-0.43	0.00	0.00	0.00	0.00	-1.82	0.61	-1.54	-1.44	-3.56	16.05	-2.25	-2.21	0.00	0.00	0.00	0.00	0.10	-20.15	-10.78
86.28	102.84	-47.69	-1.73	0.52	-27.74	-6.79	-1.11	1.27	0.00	2.16	0.00	2.35	30.95	-2.36	-1.99	-0.78	-2.48	0.00	3.62	0.00	0.93	29.05	0.58	-1.11	1.55	-1.26	0.00	0.00	0.00	-2.16	-1.64	0.15	1.26	-1.45	-6.91	1.64	-0.43	0.00	0.00	0.00	0.00	-1.86	0.65	-1.95	-1.51	-3.64	16.16	-2.21	-2.20	0.00	0.00	0.00	0.00	0.12	-20.18	-10.77
86.27	102.83	-47.63	-1.73	0.52	-27.74	-6.79	-1.09	1.25	0.00	2.18	0.00	2.35	30.98	-2.31	-2.07	-0.75	-2.46	0.00	3.56	0.00	0.98	29.07	0.57	-1.10	1.60	-1.28	0.00	0.00	0.00	-2.17	-1.60	0.19	1.28	-1.38	-6.90	1.60	-0.42	0.00	0.00	0.00	0.00	-1.85	0.74	-2.44	-1.64	-3.73	16.30	-2.17	-2.19	0.00	0.00	0.00	0.00	0.11	-20.24	-10.76
86.26	102.83	-47.58	-1.77	0.46	-27.64	-6.80	-1.07	1.24	0.00	2.19	0.00	2.35	31.02	-2.31	-2.16	-0.74	-2.46	0.00	3.53	0.00	0.97	29.07	0.58	-1.08	1.60	-1.29	0.00	0.00	0.00	-2.13	-1.59	0.21	1.23	-1.38	-6.87	1.56	-0.41	0.00	0.00	0.00	0.00	-1.83	0.78	-2.94	-1.77	-3.84	16.41	-2.09	-2.20	0.00	0.00	0.00	0.00	0.20	-19.69	-10.86
86.33	102.83	-47.61	-1.77	0.46	-27.64	-6.80	-1.07	1.22	0.00	2.21	0.00	2.35	30.99	-2.33	-2.26	-0.71	-2.44	0.00	3.48	0.00	0.95	29.11	0.58	-1.09	1.63	-1.29	0.00	0.00	0.00	-2.17	-1.55	0.27	1.29	-1.40	-6.84	1.52	-0.41	0.00	0.00	0.00	0.00	-1.90	0.83	-3.40	-1.79	-3.92	16.54	-2.01	-2.19	0.00	0.00	0.00	0.00	0.21	-19.72	-10.85
86.31	102.83	-47.60	-1.77	0.46	-27.64	-6.81	-1.05	1.19	0.00	2.21	0.00	2.37	31.00	-2.35	-2.35	-0.72	-2.41	0.00	3.47	0.00	0.97	29.12	0.55	-1.11	1.65	-1.29	0.00	0.00	0.00	-2.21	-1.50	0.32	1.34	-1.42	-6.82	1.49	-0.41	0.00	0.00	0.00	0.00	-1.96	0.90	-3.83	-1.79	-4.04	16.65	-1.93	-2.21	0.00	0.00	0.00	0.00	0.23	-19.74	-10.85
86.30	102.83	-47.57	-1.81	0.40	-27.55	-6.78	-1.07	1.13	0.00	2.21	0.00	2.36	31.00	-2.34	-2.46	-0.69	-2.39	0.00	3.41	0.00	0.97	29.13	0.54	-1.12	1.68	-1.29	0.00	0.00	0.00	-2.25	-1.45	0.36	1.39	-1.41	-6.81	1.46	-0.41	0.00	0.00	0.00	0.00	-2.02	0.99	-4.21	-1.76	-4.14	16.77	-1.86	-2.22	0.00	0.00	0.00	0.00	0.33	-19.15	-11.00
86.35	102.83	-47.72	-1.81	0.40	-27.55	-6.78	-1.03	1.12	0.00	2.19	0.00	2.37	31.10	-2.35	-2.56	-0.73	-2.36	0.00	3.45	0.00	1.00	29.06	0.52	-1.13	1.70	-1.30	0.00	0.00	0.00	-2.26	-1.42	0.39	1.42	-1.43	-6.80	1.43	-0.41	0.00	0.00	0.00	0.00	-2.05	1.05	-4.51	-1.75	-4.18	16.85	-1.82	-2.24	0.00	0.00	0.00	0.00	0.34	-19.17	-10.99
86.32	102.83	-47.66	-1.81	0.40	-27.55	-6.78	-1.01	1.09	0.00	2.21	0.00	2.37	31.12	-2.34	-2.65	-0.67	-2.30	0.00	3.38	0.00	1.00	29.09	0.48	-1.13	1.71	-1.30	0.00	0.00	0.00	-2.29	-1.39	0.40	1.44	-1.50	-6.79	1.42	-0.41	0.00	0.00	0.00	0.00	-2.10	1.09	-4.76	-1.71	-4.22	16.93	-1.82	-2.27	0.00	0.00	0.00	0.00	0.34	-19.18	-11.00
86.29	102.84	-47.61	-1.82	0.39	-27.46	-6.78	-0.98	1.07	0.00	2.20	0.00	2.37	31.13	-2.35	-2.73	-0.68	-2.27	0.00	3.37	0.00	1.01	29.09	0.46	-1.13	1.72	-1.30	0.00	0.00	0.00	-2.29	-1.36	0.41	1.44	-1.53	-6.81	1.43	-0.41	0.00	0.00	0.00	0.00	-2.14	1.15	-4.93	-1.66	-4.27	16.99	-1.84	-2.31	0.00	0.00	0.00	0.00	0.32	-19.06	-11.10
86.30	102.85	-47.59	-1.82	0.39	-27.46	-6.77	-0.97	1.05	0.00	2.20	0.00	2.35	31.06	-2.31	-2.81	-0.66	-2.23	0.00	3.33	0.00	1.01	29.11	0.45	-1.13	1.73	-1.29	0.00	0.00	0.00	-2.31	-1.33	0.41	1.47	-1.57	-6.85	1.48	-0.42	0.00	0.00	0.00	0.00	-2.19	1.19	-5.04	-1.57	-4.31	17.05	-1.88	-2.36	0.00	0.00	0.00	0.00	0.32	-19.07	-11.11
86.29	102.85	-47.57	-1.82	0.39	-27.46	-6.82	-0.90	1.06	0.00	2.22	0.00	2.33	31.02	-2.29	-2.88	-0.64	-2.19	0.00	3.28	0.00	1.00	29.12	0.43	-1.14	1.72	-1.27	0.00	0.00	0.00	-2.35	-1.33	0.43	1.49	-1.62	-6.88	1.50	-0.42	0.00	0.00	0.00	0.00	-2.25	1.21	-5.09	-1.46	-4.32	17.10	-1.94	-2.40	0.00	0.00	0.00	0.00	0.33	-19.06	-11.12
86.30	102.86	-47.42	-1.85	0.37	-27.40	-6.82	-0.91	1.04	0.00	2.26	0.00	2.33	30.99	-2.28	-2.93	-0.56	-2.14	0.00	3.14	0.00	1.01	29.22	0.40	-1.15	1.70	-1.25	0.00	0.00	0.00	-2.39	-1.34	0.42	1.54	-1.63	-6.91	1.53	-0.42	0.00	0.00	0.00	0.00	-2.32	1.23	-5.09	-1.33	-4.31	17.14	-2.00	-2.46	0.00	0.00	0.00	0.00	0.32	-18.77	-11.19
86.36	102.86	-47.44	-1.85	0.37	-27.40	-6.83	-0.90	1.01	0.00	2.26	0.00	2.32	30.96	-2.27	-2.97	-0.55	-2.14	0.00	3.15	0.00	1.00	29.25	0.39	-1.16	1.68	-1.23	0.00	0.00	0.00	-2.43	-1.35	0.40	1.57	-1.63	-6.93	1.54	-0.40	0.00	0.00	0.00	0.00	-2.37	1.24	-5.03	-1.20	-4.31	17.16	-2.05	-2.51	0.00	0.00	0.00	0.00	0.32	-18.76	-11.22
86.36	102.86	-47.43	-1.85	0.37	-27.40	-6.84	-0.89	1.00	0.00	2.26	0.00	2.31	30.97	-2.27	-3.00	-0.53	-2.11	0.00	3.17	0.00	1.01	29.26	0.39	-1.17	1.66	-1.20	0.00	0.00	0.00	-2.45	-1.39	0.37	1.61	-1.63	-6.95	1.58	-0.39	0.00	0.00	0.00	0.00	-2.42	1.24	-4.95	-1.06	-4.32	17.20	-2.10	-2.57	0.00	0.00	0.00	0.00	0.32	-18.73	-11.25
86.36	102.87	-47.41	-1.87	0.32	-27.31	-6.85	-0.88	0.99	0.00	2.26	0.00	2.30	30.95	-2.26	-2.99	-0.52	-2.08	0.00	3.21	0.00	1.03	29.30	0.36	-1.17	1.63	-1.17	0.00	0.00	0.00	-2.48	-1.43	0.33	1.64	-1.63	-6.98	1.62	-0.37	0.00	0.00	0.00	0.00	-2.47	1.22	-4.86	-0.93	-4.31	17.25	-2.15	-2.64	0.00	0.00	0.00	0.00	0.27	-18.49	-11.29
86.40	102.87	-47.47	-1.87	0.32	-27.31	-6.86	-0.87	0.96	0.00	2.25	0.00	2.29	30.94	-2.25	-2.98	-0.51	-2.05	0.00	3.24	0.00	1.06	29.34	0.29	-1.16	1.61	-1.13	0.00	0.00	0.00	-2.48	-1.44	0.29	1.64	-1.62	-7.00	1.66	-0.37	0.00	0.00	0.00	0.00	-2.49	1.22	-4.77	-0.82	-4.32	17.27	-2.22	-2.71	0.00	0.00	0.00	0.00	0.25	-18.47	-11.33
86.41	102.87	-47.45	-1.87	0.32	-27.31	-6.87	-0.88	0.95	0.00	2.28	0.00	2.27	30.93	-2.24	-2.95	-0.51	-2.03	0.00	3.26	0.00	1.04	29.32	0.31	-1.16	1.58	-1.10	0.00	0.00	0.00	-2.48	-1.44	0.26	1.64	-1.68	-7.08	1.70	-0.35	0.00	0.00	0.00	0.00	-2.49	1.21	-4.67	-0.72	-4.32	17.29	-2.29	-2.77	0.00	0.00	0.00	0.00	0.23	-18.44	-11.37
86.42	102.87	-47.44	-1.91	0.25	-27.25	-6.89	-0.87	0.92	0.00	2.28	0.00	2.27	30.97	-2.23	-2.91	-0.48	-2.01	0.00	3.27	0.00	1.02	29.29	0.30	-1.14	1.55	-1.06	0.00	0.00	0.00	-2.47	-1.46	0.22	1.64	-1.67	-7.10	1.75	-0.34	0.00	0.00	0.00	0.00	-2.48	1.18	-4.58	-0.65	-4.31	17.29	-2.35	-2.81	0.00	0.00	0.00	0.00	0.16	-18.23	-11.36
86.51	102.86	-47.51	-1.91	0.25	-27.25	-6.91	-0.85	0.87	0.00	2.28	0.00	2.28	31.00	-2.23	-2.86	-0.48	-2.00	0.00	3.28	0.00	1.01	29.21	0.39	-1.13	1.52	-1.03	0.00	0.00	0.00	-2.47	-1.49	0.18	1.64	-1.67	-7.12	1.79	-0.34	0.00	0.00	0.00	0.00	-2.46	1.16	-4.49	-0.59	-4.28	17.31	-2.40	-2.85	0.00	0.00	0.00	0.00	0.14	-18.20	-11.40
86.53	102.85	-47.48	-1.91	0.25	-27.25	-6.94	-0.86	0.82	0.00	2.29	0.00	2.29	30.98	-2.23	-2.81	-0.49	-2.05	0.00	3.29	0.00	0.98	29.24	0.43	-1.10	1.51	-0.99	0.00	0.00	0.00	-2.46	-1.51	0.13	1.63	-1.68	-7.13	1.82	-0.34	0.00	0.00	0.00	0.00	-2.43	1.15	-4.43	-0.55	-4.23	17.33	-2.43	-2.87	0.00	0.00	0.00	0.00	0.10	-18.19	-11.44
86.56	102.85	-47.46	-1.94	0.21	-27.23	-6.98	-0.87	0.79	0.00	2.35	0.00	2.30	30.96	-2.23	-2.76	-0.45	-2.07	0.00	3.25	0.00	0.96	29.20	0.46	-1.09	1.49	-0.95	0.00	0.00	0.00	-2.48	-1.52	0.11	1.64	-1.69	-7.14	1.84	-0.34	0.00	0.00	0.00	0.00	-2.41	1.15	-4.35	-0.50	-4.21	17.33	-2.47	-2.90	0.00	0.00	0.00	0.00	0.10	-17.94	-11.30
86.66	102.84	-47.48	-1.94	0.21	-27.23	-7.02	-0.88	0.74	0.00	2.37	0.00	2.32	30.93	-2.21	-2.69	-0.38	-2.03	0.00	3.24	0.00	0.95	29.19	0.45	-1.08	1.47	-0.92	0.00	0.00	0.00	-2.49	-1.56	0.09	1.66	-1.71	-7.17	1.88	-0.33	0.00	0.00	0.00	0.00	-2.40	1.12	-4.30	-0.45	-4.19	17.36	-2.50	-2.92	0.00	0.00	0.00	0.00	0.08	-17.92	-11.34
86.72	102.83	-47.45	-1.94	0.21	-27.23	-7.07	-0.87	0.70	0.00	2.36	0.00	2.33	30.95	-2.20	-2.63	-0.39	-2.01	0.00	3.33	0.00	1.02	29.18	0.39	-1.06	1.46	-0.88	0.00	0.00	0.00	-2.49	-1.59	0.05	1.67	-1.66	-7.13	1.91	-0.32	0.00	0.00	0.00	0.00	-2.35	1.13	-4.27	-0.41	-4.20	17.38	-2.54	-2.94	0.00	0.00	0.00	0.00	0.04	-17.91	-11.38
86.78	102.83	-47.41	-1.98	0.14	-27.18	-7.11	-0.88	0.66	0.00	2.38	0.00	2.33	30.94	-2.19	-2.58	-0.38	-2.00	0.00	3.36	0.00	1.02	29.16	0.40	-1.05	1.45	-0.84	0.00	0.00	0.00	-2.49	-1.59	0.02	1.69	-1.69	-7.17	1.94	-0.33	0.00	0.00	0.00	0.00	-2.33	1.12	-4.22	-0.38	-4.18	17.43	-2.58	-2.95	0.00	0.00	0.00	0.00	0.06	-17.57	-11.20
86.91	102.82	-47.50	-1.98	0.14	-27.18	-7.16	-0.89	0.60	0.00	2.37	0.00	2.33	30.92	-2.18	-2.53	-0.38	-2.00	0.00	3.39	0.00	1.00	29.11	0.42	-1.02	1.43	-0.81	0.00	0.00	0.00	-2.47	-1.60	-0.01	1.67	-1.76	-7.10	1.98	-0.32	0.00	0.00	0.00	0.00	-2.29	1.10	-4.19	-0.37	-4.17	17.45	-2.61	-2.96	0.00	0.00	0.00	0.00	0.02	-17.56	-11.24
86.99	102.80	-47.51	-1.98	0.14	-27.18	-7.16	-0.96	0.53	0.00	2.36	0.00	2.34	30.94	-2.17	-2.49	-0.39	-1.99	0.00	3.43	0.00	1.00	29.07	0.42	-1.01	1.41	-0.76	0.00	0.00	0.00	-2.46	-1.56	-0.06	1.64	-1.87	-7.16	2.02	-0.32	0.00	0.00	0.00	0.00	-2.26	1.08	-4.18	-0.33	-4.14	17.46	-2.63	-2.95	0.00	0.00	0.00	0.00	-0.01	-17.54	-11.29
87.04	102.79	-47.61	-2.00	0.07	-27.16	-7.20	-0.95	0.50	0.00	2.36	0.00	2.36	30.95	-2.17	-2.46	-0.42	-2.00	0.00	3.52	0.00	0.97	29.00	0.44	-0.99	1.40	-0.73	0.00	0.00	0.00	-2.44	-1.56	-0.09	1.64	-1.91	-7.17	2.04	-0.31	0.00	0.00	0.00	0.00	-2.23	1.06	-4.17	-0.31	-4.11	17.50	-2.63	-2.94	0.00	0.00	0.00	0.00	-0.01	-17.24	-11.25
87.14	102.77	-47.69	-2.00	0.07	-27.16	-7.24	-0.96	0.47	0.00	2.38	0.00	2.36	30.94	-2.18	-2.44	-0.42	-2.00	0.00	3.53	0.00	0.98	29.05	0.43	-0.97	1.38	-0.69	0.00	0.00	0.00	-2.44	-1.58	-0.13	1.64	-1.92	-7.17	2.06	-0.31	0.00	0.00	0.00	0.00	-2.20	1.03	-4.14	-0.29	-4.07	17.51	-2.61	-2.93	0.00	0.00	0.00	0.00	-0.03	-17.22	-11.28
87.19	102.76	-47.66	-2.00	0.07	-27.16	-7.28	-0.97	0.43	0.00	2.40	0.00	2.37	30.92	-2.18	-2.43	-0.42	-2.03	0.00	3.53	0.00	0.91	28.97	0.50	-0.96	1.36	-0.66	0.00	0.00	0.00	-2.47	-1.63	-0.15	1.70	-1.84	-7.11	2.06	-0.29	0.00	0.00	0.00	0.00	-2.20	1.01	-4.10	-0.25	-4.05	17.53	-2.60	-2.92	0.00	0.00	0.00	0.00	-0.05	-17.20	-11.31
87.24	102.74	-47.64	-2.03	0.03	-27.13	-7.31	-0.98	0.39	0.00	2.40	0.00	2.38	30.89	-2.18	-2.43	-0.42	-2.03	0.00	3.52	0.00	0.91	28.99	0.50	-0.96	1.34	-0.63	0.00	0.00	0.00	-2.48	-1.65	-0.17	1.72	-1.84	-7.09	2.06	-0.28	0.00	0.00	0.00	0.00	-2.20	0.99	-4.07	-0.19	-4.06	17.54	-2.58	-2.91	0.00	0.00	0.00	0.00	-0.04	-16.90	-11.34
